# xmcd
#
# Track frame offsets:
#	150
#	29492
#	75593
#	130916
#	151803
#	192557
#	222087
#	244746
#	276563
#	295796
#
# Disc length: 4170 seconds
# Revision: 1
# Processed by: cddbd v1.5.2PL0 Copyright (c) Steve Scherf et al.
# Submitted via: dBpowerAMP V12.0
#
DISCID=9110480a
DTITLE=Henrik Freischlader - Blues for Gary
DYEAR=2017
DGENRE=Blues
TTITLE0=The Prophet
TTITLE1=The Messiah will come again
TTITLE2=Blues for Narada
TTITLE3=Intro
TTITLE4=Where Did We Go Wrong?
TTITLE5=Where Are You Now?
TTITLE6=Jumping At Shadows
TTITLE7=With Love (Remember)
TTITLE8=Johnny Boy
TTITLE9=Parisienne Walkways
EXTD=
EXTT0=
EXTT1=
EXTT2=
EXTT3=
EXTT4=
EXTT5=
EXTT6=
EXTT7=
EXTT8=
EXTT9=
PLAYORDER=
